<svg xmlns="http://www.w3.org/2000/svg" width="1000" height="500"><line x1="10.0" y1="90.0" x2="190.0" y2="90.0" stroke="black" /><line x1="10.0" y1="90.0" x2="10.0" y2="10.0" stroke="black" /><polyline points="10.0,27.14285714285714 27.095310136157337,27.14285714285714 28.910741301059,27.14285714285714 30.726172465960666,27.14285714285714 36.4750378214826,32.85714285714286 38.19969742813918,32.85714285714286 39.74281391830559,27.14285714285714 44.704992435703474,27.14285714285714 56.323751891074124,32.85714285714286 57.32223903177004,32.85714285714286 58.108925869894094,32.85714285714286 61.3161875945537,21.428571428571416 62.4357034795764,21.428571428571416 63.34341906202723,21.428571428571416 66.7927382753404,27.14285714285714 70.18154311649018,21.428571428571416 71.33131618759457,21.428571428571416 72.8139183055976,21.428571428571416 81.61875945537066,21.428571428571416 82.58698940998488,21.428571428571416 83.5854765506808,21.428571428571416 84.82602118003027,21.428571428571416 86.21785173978822,21.428571428571416 88.54765506807868,27.14285714285714 91.42208774583965,27.14285714285714 93.02571860816946,27.14285714285714 93.90317700453859,27.14285714285714 99.2889561270802,27.14285714285714 100.46898638426627,27.14285714285714 101.58850226928897,27.14285714285714 105.7034795763994,21.428571428571416 108.63842662632376,21.428571428571416 111.08925869894101,21.428571428571416 117.41301059001513,21.428571428571416 118.19969742813919,21.428571428571416 119.47049924357036,21.428571428571416 120.95310136157339,21.428571428571416 124.70499243570349,21.428571428571416 125.49167927382754,21.428571428571416 126.2783661119516,21.428571428571416 130.96822995461423,15.714285714285722 131.75491679273827,10.0 132.7231467473525,10.0 140.3479576399395,15.714285714285722 141.31618759455372,15.714285714285722 142.16338880484116,15.714285714285722 153.66111951588505,15.714285714285722 155.29500756429655,10.0 156.92889561270806,10.0 172.90468986384272,21.428571428571416 190.00000000000006,27.14285714285714 190.00000000000006,90.0 10.0,90.0" stroke="blue" fill="lightblue" stroke_width="2" /></svg>