<svg xmlns="http://www.w3.org/2000/svg" width="1000" height="500"><line x1="50" y1="450" x2="950" y2="450" stroke="black" /><line x1="50" y1="450" x2="50" y2="50" stroke="black" /><polyline points="50,135.71428571428572 135.4765506807867,135.71428571428572 144.553706505295,135.71428571428572 153.6308623298033,135.71428571428572 182.37518910741298,164.28571428571428 190.9984871406959,164.28571428571428 198.71406959152796,135.71428571428572 223.52496217851737,135.71428571428572 281.61875945537065,164.28571428571428 286.61119515885025,164.28571428571428 290.54462934947054,164.28571428571428 306.5809379727686,107.14285714285711 312.17851739788205,107.14285714285711 316.7170953101362,107.14285714285711 333.963691376702,135.71428571428572 350.90771558245086,107.14285714285711 356.6565809379728,107.14285714285711 364.06959152798794,107.14285714285711 408.0937972768533,107.14285714285711 412.9349470499244,107.14285714285711 417.927382753404,107.14285714285711 424.13010590015136,107.14285714285711 431.0892586989411,107.14285714285711 442.73827534039344,135.71428571428572 457.1104387291983,135.71428571428572 465.1285930408473,135.71428571428572 469.515885022693,135.71428571428572 496.444780635401,135.71428571428572 502.3449319213314,135.71428571428572 507.94251134644486,135.71428571428572 528.5173978819971,107.14285714285711 543.1921331316189,107.14285714285711 555.4462934947052,107.14285714285711 587.0650529500758,107.14285714285711 590.998487140696,107.14285714285711 597.3524962178519,107.14285714285711 604.765506807867,107.14285714285711 623.5249621785176,107.14285714285711 627.4583963691379,107.14285714285711 631.3918305597581,107.14285714285711 654.8411497730713,78.57142857142856 658.7745839636915,50.0 663.6157337367626,50.0 701.7397881996976,78.57142857142856 706.5809379727688,78.57142857142856 710.816944024206,78.57142857142856 768.3055975794254,78.57142857142856 776.4750378214828,50.0 784.6444780635403,50.0 864.5234493192136,107.14285714285711 950.0000000000002,135.71428571428572 950.0000000000002,450 50,450" stroke="blue" fill="lightblue" stroke_width="2" /></svg>